<mxfile host="app.diagrams.net" modified="2023-08-06T15:57:22.655Z" agent="Mozilla/5.0 (Windows NT 10.0; Win64; x64) AppleWebKit/537.36 (KHTML, like Gecko) Chrome/115.0.0.0 Safari/537.36" etag="ZzXurwQAHPO2hJagF3k-" version="21.6.6" type="google">
  <diagram name="Page-1" id="agtnBVz0SsuNkHqTtgxE">
    <mxGraphModel grid="1" page="1" gridSize="10" guides="1" tooltips="1" connect="1" arrows="1" fold="1" pageScale="1" pageWidth="850" pageHeight="1100" math="0" shadow="0">
      <root>
        <mxCell id="0" />
        <mxCell id="1" parent="0" />
        <mxCell id="fl3L--8oDblomdXYh793-15" style="edgeStyle=orthogonalEdgeStyle;rounded=0;orthogonalLoop=1;jettySize=auto;html=1;exitX=0;exitY=0;exitDx=0;exitDy=30;exitPerimeter=0;" edge="1" parent="1" source="fl3L--8oDblomdXYh793-5">
          <mxGeometry relative="1" as="geometry">
            <mxPoint x="120" y="200" as="targetPoint" />
          </mxGeometry>
        </mxCell>
        <mxCell id="fl3L--8oDblomdXYh793-26" style="edgeStyle=orthogonalEdgeStyle;rounded=0;orthogonalLoop=1;jettySize=auto;html=1;exitX=0;exitY=0;exitDx=0;exitDy=60;exitPerimeter=0;" edge="1" parent="1" source="fl3L--8oDblomdXYh793-5">
          <mxGeometry relative="1" as="geometry">
            <mxPoint x="280" y="200" as="targetPoint" />
          </mxGeometry>
        </mxCell>
        <mxCell id="fl3L--8oDblomdXYh793-30" style="edgeStyle=orthogonalEdgeStyle;rounded=0;orthogonalLoop=1;jettySize=auto;html=1;exitX=0;exitY=0;exitDx=75;exitDy=80;exitPerimeter=0;" edge="1" parent="1" source="fl3L--8oDblomdXYh793-5">
          <mxGeometry relative="1" as="geometry">
            <mxPoint x="520" y="200" as="targetPoint" />
          </mxGeometry>
        </mxCell>
        <mxCell id="fl3L--8oDblomdXYh793-41" style="edgeStyle=orthogonalEdgeStyle;rounded=0;orthogonalLoop=1;jettySize=auto;html=1;exitX=0;exitY=0;exitDx=130;exitDy=50;exitPerimeter=0;" edge="1" parent="1" source="fl3L--8oDblomdXYh793-5">
          <mxGeometry relative="1" as="geometry">
            <mxPoint x="760" y="190" as="targetPoint" />
          </mxGeometry>
        </mxCell>
        <mxCell id="fl3L--8oDblomdXYh793-5" value="Supervisor" style="shape=cube;whiteSpace=wrap;html=1;boundedLbl=1;backgroundOutline=1;darkOpacity=0.05;darkOpacity2=0.1;" vertex="1" parent="1">
          <mxGeometry x="330" y="10" width="130" height="80" as="geometry" />
        </mxCell>
        <mxCell id="ARGZ7JHp_GoGjGblhbFb-1" style="edgeStyle=orthogonalEdgeStyle;rounded=0;orthogonalLoop=1;jettySize=auto;html=1;exitX=1;exitY=0.5;exitDx=0;exitDy=0;" edge="1" parent="1" source="fl3L--8oDblomdXYh793-8">
          <mxGeometry relative="1" as="geometry">
            <mxPoint x="720" y="300" as="targetPoint" />
          </mxGeometry>
        </mxCell>
        <mxCell id="fl3L--8oDblomdXYh793-8" value="&amp;nbsp; &amp;nbsp; &amp;nbsp; &amp;nbsp; &amp;nbsp; &amp;nbsp;MSAccess:Orders" style="html=1;dashed=0;whiteSpace=wrap;shape=mxgraph.dfd.dataStoreID;align=left;spacingLeft=3;points=[[0,0],[0.5,0],[1,0],[0,0.5],[1,0.5],[0,1],[0.5,1],[1,1]];" vertex="1" parent="1">
          <mxGeometry x="310" y="460" width="150" height="30" as="geometry" />
        </mxCell>
        <mxCell id="fl3L--8oDblomdXYh793-11" value="3.1" style="swimlane;fontStyle=1;align=center;verticalAlign=top;childLayout=stackLayout;horizontal=1;startSize=30;horizontalStack=0;resizeParent=1;resizeParentMax=0;resizeLast=0;collapsible=1;marginBottom=0;whiteSpace=wrap;html=1;rounded=1;" vertex="1" parent="1">
          <mxGeometry x="60" y="210" width="160" height="94" as="geometry" />
        </mxCell>
        <mxCell id="fl3L--8oDblomdXYh793-12" value="Maintain Orders" style="text;strokeColor=none;fillColor=none;align=center;verticalAlign=top;spacingLeft=4;spacingRight=4;overflow=hidden;rotatable=0;points=[[0,0.5],[1,0.5]];portConstraint=eastwest;whiteSpace=wrap;html=1;" vertex="1" parent="fl3L--8oDblomdXYh793-11">
          <mxGeometry y="30" width="160" height="26" as="geometry" />
        </mxCell>
        <mxCell id="fl3L--8oDblomdXYh793-13" value="" style="line;strokeWidth=1;fillColor=none;align=left;verticalAlign=middle;spacingTop=-1;spacingLeft=3;spacingRight=3;rotatable=0;labelPosition=right;points=[];portConstraint=eastwest;strokeColor=inherit;" vertex="1" parent="fl3L--8oDblomdXYh793-11">
          <mxGeometry y="56" width="160" height="8" as="geometry" />
        </mxCell>
        <mxCell id="fl3L--8oDblomdXYh793-14" value="C#" style="text;strokeColor=none;fillColor=none;align=center;verticalAlign=top;spacingLeft=4;spacingRight=4;overflow=hidden;rotatable=0;points=[[0,0.5],[1,0.5]];portConstraint=eastwest;whiteSpace=wrap;html=1;" vertex="1" parent="fl3L--8oDblomdXYh793-11">
          <mxGeometry y="64" width="160" height="30" as="geometry" />
        </mxCell>
        <mxCell id="fl3L--8oDblomdXYh793-16" value="Windows 10 GUI:&lt;br&gt;Delete Order Form" style="text;html=1;align=center;verticalAlign=middle;resizable=0;points=[];autosize=1;strokeColor=none;fillColor=none;" vertex="1" parent="1">
          <mxGeometry y="90" width="120" height="40" as="geometry" />
        </mxCell>
        <mxCell id="fl3L--8oDblomdXYh793-17" style="edgeStyle=orthogonalEdgeStyle;rounded=0;orthogonalLoop=1;jettySize=auto;html=1;exitX=0;exitY=0.5;exitDx=0;exitDy=0;entryX=0;entryY=0.5;entryDx=0;entryDy=0;" edge="1" parent="1" source="fl3L--8oDblomdXYh793-14" target="fl3L--8oDblomdXYh793-8">
          <mxGeometry relative="1" as="geometry">
            <mxPoint x="300" y="481" as="targetPoint" />
          </mxGeometry>
        </mxCell>
        <mxCell id="fl3L--8oDblomdXYh793-19" value="SQL DELETE ORDER" style="text;html=1;align=left;verticalAlign=middle;resizable=0;points=[];autosize=1;strokeColor=none;fillColor=none;" vertex="1" parent="1">
          <mxGeometry x="40" y="370" width="140" height="30" as="geometry" />
        </mxCell>
        <mxCell id="fl3L--8oDblomdXYh793-22" value="3.2" style="swimlane;fontStyle=1;align=center;verticalAlign=top;childLayout=stackLayout;horizontal=1;startSize=30;horizontalStack=0;resizeParent=1;resizeParentMax=0;resizeLast=0;collapsible=1;marginBottom=0;whiteSpace=wrap;html=1;rounded=1;" vertex="1" parent="1">
          <mxGeometry x="260" y="210" width="160" height="94" as="geometry" />
        </mxCell>
        <mxCell id="fl3L--8oDblomdXYh793-23" value="Maintain Orders" style="text;strokeColor=none;fillColor=none;align=center;verticalAlign=top;spacingLeft=4;spacingRight=4;overflow=hidden;rotatable=0;points=[[0,0.5],[1,0.5]];portConstraint=eastwest;whiteSpace=wrap;html=1;" vertex="1" parent="fl3L--8oDblomdXYh793-22">
          <mxGeometry y="30" width="160" height="26" as="geometry" />
        </mxCell>
        <mxCell id="fl3L--8oDblomdXYh793-24" value="" style="line;strokeWidth=1;fillColor=none;align=left;verticalAlign=middle;spacingTop=-1;spacingLeft=3;spacingRight=3;rotatable=0;labelPosition=right;points=[];portConstraint=eastwest;strokeColor=inherit;" vertex="1" parent="fl3L--8oDblomdXYh793-22">
          <mxGeometry y="56" width="160" height="8" as="geometry" />
        </mxCell>
        <mxCell id="fl3L--8oDblomdXYh793-25" value="C#" style="text;strokeColor=none;fillColor=none;align=center;verticalAlign=top;spacingLeft=4;spacingRight=4;overflow=hidden;rotatable=0;points=[[0,0.5],[1,0.5]];portConstraint=eastwest;whiteSpace=wrap;html=1;" vertex="1" parent="fl3L--8oDblomdXYh793-22">
          <mxGeometry y="64" width="160" height="30" as="geometry" />
        </mxCell>
        <mxCell id="fl3L--8oDblomdXYh793-27" value="Windows 10 GUI:&lt;br&gt;Update Order Form" style="text;whiteSpace=wrap;html=1;" vertex="1" parent="1">
          <mxGeometry x="280" y="118" width="120" height="40" as="geometry" />
        </mxCell>
        <mxCell id="fl3L--8oDblomdXYh793-28" style="edgeStyle=orthogonalEdgeStyle;rounded=0;orthogonalLoop=1;jettySize=auto;html=1;exitX=0;exitY=0.5;exitDx=0;exitDy=0;entryX=0;entryY=0;entryDx=0;entryDy=0;" edge="1" parent="1" source="fl3L--8oDblomdXYh793-25" target="fl3L--8oDblomdXYh793-8">
          <mxGeometry relative="1" as="geometry" />
        </mxCell>
        <mxCell id="fl3L--8oDblomdXYh793-29" value="SQL UPDATE ORDER" style="text;html=1;align=left;verticalAlign=middle;resizable=0;points=[];autosize=1;strokeColor=none;fillColor=none;" vertex="1" parent="1">
          <mxGeometry x="240" y="340" width="140" height="30" as="geometry" />
        </mxCell>
        <mxCell id="fl3L--8oDblomdXYh793-31" value="3.3" style="swimlane;fontStyle=1;align=center;verticalAlign=top;childLayout=stackLayout;horizontal=1;startSize=30;horizontalStack=0;resizeParent=1;resizeParentMax=0;resizeLast=0;collapsible=1;marginBottom=0;whiteSpace=wrap;html=1;rounded=1;" vertex="1" parent="1">
          <mxGeometry x="450" y="210" width="160" height="94" as="geometry" />
        </mxCell>
        <mxCell id="fl3L--8oDblomdXYh793-32" value="Maintain Orders" style="text;strokeColor=none;fillColor=none;align=center;verticalAlign=top;spacingLeft=4;spacingRight=4;overflow=hidden;rotatable=0;points=[[0,0.5],[1,0.5]];portConstraint=eastwest;whiteSpace=wrap;html=1;" vertex="1" parent="fl3L--8oDblomdXYh793-31">
          <mxGeometry y="30" width="160" height="26" as="geometry" />
        </mxCell>
        <mxCell id="fl3L--8oDblomdXYh793-33" value="" style="line;strokeWidth=1;fillColor=none;align=left;verticalAlign=middle;spacingTop=-1;spacingLeft=3;spacingRight=3;rotatable=0;labelPosition=right;points=[];portConstraint=eastwest;strokeColor=inherit;" vertex="1" parent="fl3L--8oDblomdXYh793-31">
          <mxGeometry y="56" width="160" height="8" as="geometry" />
        </mxCell>
        <mxCell id="fl3L--8oDblomdXYh793-34" value="C#" style="text;strokeColor=none;fillColor=none;align=center;verticalAlign=top;spacingLeft=4;spacingRight=4;overflow=hidden;rotatable=0;points=[[0,0.5],[1,0.5]];portConstraint=eastwest;whiteSpace=wrap;html=1;" vertex="1" parent="fl3L--8oDblomdXYh793-31">
          <mxGeometry y="64" width="160" height="30" as="geometry" />
        </mxCell>
        <mxCell id="fl3L--8oDblomdXYh793-35" style="edgeStyle=orthogonalEdgeStyle;rounded=0;orthogonalLoop=1;jettySize=auto;html=1;exitX=1;exitY=0.5;exitDx=0;exitDy=0;entryX=1;entryY=0;entryDx=0;entryDy=0;" edge="1" parent="1" source="fl3L--8oDblomdXYh793-34" target="fl3L--8oDblomdXYh793-8">
          <mxGeometry relative="1" as="geometry" />
        </mxCell>
        <mxCell id="fl3L--8oDblomdXYh793-37" value="3.4" style="swimlane;fontStyle=1;align=center;verticalAlign=top;childLayout=stackLayout;horizontal=1;startSize=30;horizontalStack=0;resizeParent=1;resizeParentMax=0;resizeLast=0;collapsible=1;marginBottom=0;whiteSpace=wrap;html=1;rounded=1;" vertex="1" parent="1">
          <mxGeometry x="700" y="200" width="160" height="94" as="geometry" />
        </mxCell>
        <mxCell id="fl3L--8oDblomdXYh793-38" value="Maintain Orders" style="text;strokeColor=none;fillColor=none;align=center;verticalAlign=top;spacingLeft=4;spacingRight=4;overflow=hidden;rotatable=0;points=[[0,0.5],[1,0.5]];portConstraint=eastwest;whiteSpace=wrap;html=1;" vertex="1" parent="fl3L--8oDblomdXYh793-37">
          <mxGeometry y="30" width="160" height="26" as="geometry" />
        </mxCell>
        <mxCell id="fl3L--8oDblomdXYh793-39" value="" style="line;strokeWidth=1;fillColor=none;align=left;verticalAlign=middle;spacingTop=-1;spacingLeft=3;spacingRight=3;rotatable=0;labelPosition=right;points=[];portConstraint=eastwest;strokeColor=inherit;" vertex="1" parent="fl3L--8oDblomdXYh793-37">
          <mxGeometry y="56" width="160" height="8" as="geometry" />
        </mxCell>
        <mxCell id="fl3L--8oDblomdXYh793-40" value="C#" style="text;strokeColor=none;fillColor=none;align=center;verticalAlign=top;spacingLeft=4;spacingRight=4;overflow=hidden;rotatable=0;points=[[0,0.5],[1,0.5]];portConstraint=eastwest;whiteSpace=wrap;html=1;" vertex="1" parent="fl3L--8oDblomdXYh793-37">
          <mxGeometry y="64" width="160" height="30" as="geometry" />
        </mxCell>
        <mxCell id="fl3L--8oDblomdXYh793-43" value="Windows 10 GUI:&lt;br&gt;Add Order Form" style="text;whiteSpace=wrap;html=1;" vertex="1" parent="1">
          <mxGeometry x="530" y="150" width="120" height="40" as="geometry" />
        </mxCell>
        <mxCell id="fl3L--8oDblomdXYh793-44" value="Windows 10 GUI:View Order Form" style="text;whiteSpace=wrap;html=1;" vertex="1" parent="1">
          <mxGeometry x="770" y="78" width="120" height="40" as="geometry" />
        </mxCell>
        <mxCell id="fl3L--8oDblomdXYh793-45" value="SQL INSERT ORDER" style="text;html=1;align=left;verticalAlign=middle;resizable=0;points=[];autosize=1;strokeColor=none;fillColor=none;" vertex="1" parent="1">
          <mxGeometry x="480" y="330" width="140" height="30" as="geometry" />
        </mxCell>
        <mxCell id="fl3L--8oDblomdXYh793-46" value="SQL SELECT ORDER" style="text;html=1;align=left;verticalAlign=middle;resizable=0;points=[];autosize=1;strokeColor=none;fillColor=none;" vertex="1" parent="1">
          <mxGeometry x="730" y="410" width="140" height="30" as="geometry" />
        </mxCell>
      </root>
    </mxGraphModel>
  </diagram>
</mxfile>
